<svg width="64" height="64" viewBox="0 0 64 64" xmlns="http://www.w3.org/2000/svg"><g fill="none" fill-rule="evenodd"><path d="M32 64c17.673 0 32-14.327 32-32C64 14.327 49.673 0 32 0 14.327 0 0 14.327 0 32c0 17.673 14.327 32 32 32z" fill="#4CD964"/><path d="M18.136 21.774c.106-.596.511-1.244 1.074-1.806 4.274-4.274 6.896-1.206 7.314-.787.419.418 1.534 1.761 2.73 5.463 1.272 3.94-4.698 4.186.815 9.796 5.61 5.513 5.942-.373 9.81.83 3.867 1.202 4.9 2.165 5.317 2.583.418.417 3.55 3.055-.733 7.338-.541.542-1.172.91-1.799 1.03-3.167.611-10.464-.864-16.757-7.157l-.558-.558c-6.475-6.475-8.03-13.493-7.213-16.732z" fill="#FFF"/></g></svg>