<svg width="64" height="64" viewBox="0 0 64 64" xmlns="http://www.w3.org/2000/svg"><g fill="none" fill-rule="evenodd"><path d="M32 64c17.673 0 32-14.327 32-32C64 14.327 49.673 0 32 0 14.327 0 0 14.327 0 32c0 17.673 14.327 32 32 32z" fill="#FF9A00"/><path d="M17 19.991c0-1.1.898-1.991 1.992-1.991h26.016c1.1 0 1.992.9 1.992 1.991V44.01c0 1.1-.898 1.991-1.992 1.991H18.992c-1.1 0-1.992-.9-1.992-1.991V19.99zm4 5.509c0-.828.67-1.5 1.495-1.5h19.01c.826 0 1.495.666 1.495 1.5 0 .828-.67 1.5-1.495 1.5h-19.01A1.494 1.494 0 0 1 21 25.5zm0 8c0-.828.664-1.5 1.493-1.5h12.014c.825 0 1.493.666 1.493 1.5 0 .828-.664 1.5-1.493 1.5H22.493A1.493 1.493 0 0 1 21 33.5z" fill="#FFF"/></g></svg>