<svg width="64" height="64" viewBox="0 0 64 64" xmlns="http://www.w3.org/2000/svg"><g fill="none" fill-rule="evenodd"><path d="M32 64c17.673 0 32-14.327 32-32C64 14.327 49.673 0 32 0 14.327 0 0 14.327 0 32c0 17.673 14.327 32 32 32z" fill="#21A9F6"/><g transform="translate(15 17)"><ellipse fill="#FFF" cx="17.581" cy="14.414" rx="17.581" ry="14.414"/><ellipse fill="#21A9F6" cx="18.07" cy="14.163" rx="2.442" ry="2.442"/><ellipse fill="#21A9F6" cx="26.86" cy="14.163" rx="2.442" ry="2.442"/><ellipse fill="#21A9F6" cx="8.302" cy="14.163" rx="2.442" ry="2.442"/><path d="M34.018 18.028c-.66 1.832.45 6.965-16.792 13.362-1.689.627-5.874 1.557-5.874 1.557s3.445-3.05 5.592-7.539c3.216-1.572 17.733-9.213 17.074-7.38z" fill="#FFF"/></g></g></svg>